<svg width="1920" height="1080" viewBox="0 0 1920 1080" fill="none" xmlns="http://www.w3.org/2000/svg">
<path d="M1920 -65.5344H0V1080H1920V-65.5344Z" fill="#125B50"/>
<path d="M128.006 10.8381H0V23.5669H128.006V10.8381Z" fill="#084C50"/>
<path d="M128.006 36.2959H0V49.0247H128.006V36.2959Z" fill="#084C50"/>
<path d="M256.013 29.9314V61.7533H224.011L256.013 29.9314Z" fill="#084C50"/>
<path d="M256.012 -33.7126V-1.89074L224.011 29.9312L192.009 61.7531H160.008L256.012 -33.7126Z" fill="#084C50"/>
<path d="M224.011 -65.5344H256.012L160.008 29.9326L128.006 61.7545V29.9326L224.011 -65.5344Z" fill="#084C50"/>
<path d="M576.009 61.7533C611.357 61.7533 640.013 33.2589 640.013 -1.89059C640.013 -37.0401 611.357 -65.5344 576.009 -65.5344C540.662 -65.5344 512.006 -37.0401 512.006 -1.89059C512.006 33.2589 540.662 61.7533 576.009 61.7533Z" fill="#084C50"/>
<path d="M639.994 -65.5344L768 61.7533H639.994V-65.5344Z" fill="#084C50"/>
<path d="M896.006 -65.5344L1024.01 61.7533H896.006V-65.5344Z" fill="#084C50"/>
<path d="M1152 29.9314V61.7533H1120L1152 29.9314Z" fill="#084C50"/>
<path d="M1152 -33.7126V-1.89074L1120 29.9312L1088 61.7531H1056L1152 -33.7126Z" fill="#084C50"/>
<path d="M1120 -65.5344H1152L1055.99 29.9326L1023.99 61.7545V29.9326L1120 -65.5344Z" fill="#084C50"/>
<path d="M1280.01 29.9314V61.7533H1248L1280.01 29.9314Z" fill="#084C50"/>
<path d="M1280.01 -33.7126V-1.89074L1248 29.9312L1216 61.7531H1184L1280.01 -33.7126Z" fill="#084C50"/>
<path d="M1248 -65.5344H1280.01L1184 29.9326L1152 61.7545V29.9326L1248 -65.5344Z" fill="#084C50"/>
<path d="M1420.79 -65.5344H1407.99V61.7532H1420.79V-65.5344Z" fill="#084C50"/>
<path d="M1446.4 -65.5344H1433.6V61.7532H1446.4V-65.5344Z" fill="#084C50"/>
<path d="M1472 -65.5344H1459.2V61.7532H1472V-65.5344Z" fill="#084C50"/>
<path d="M1497.6 -65.5344H1484.8V61.7532H1497.6V-65.5344Z" fill="#084C50"/>
<path d="M1523.2 -65.5344H1510.4V61.7532H1523.2V-65.5344Z" fill="#084C50"/>
<path d="M1792.01 -65.5344H1664.01V61.7533H1792.01V-65.5344Z" fill="#084C50"/>
<path d="M128.006 61.7531H0V189.041H128.006V61.7531Z" fill="#084C50"/>
<path d="M256.012 61.7531H128.006V74.4818H256.012V61.7531Z" fill="#084C50"/>
<path d="M256.012 87.2109H128.006V99.9397H256.012V87.2109Z" fill="#084C50"/>
<path d="M256.012 112.668H128.006V125.397H256.012V112.668Z" fill="#084C50"/>
<path d="M256.012 138.126H128.006V150.855H256.012V138.126Z" fill="#084C50"/>
<path d="M256.012 163.583H128.006V176.312H256.012V163.583Z" fill="#084C50"/>
<path d="M512.006 61.7531L640.013 189.041H512.006V61.7531Z" fill="#084C50"/>
<path d="M768 61.7531V189.041H639.993L768 61.7531Z" fill="#084C50"/>
<path d="M768 61.7531H896.007L768 189.041V61.7531Z" fill="#084C50"/>
<path d="M908.807 61.7531H896.006V189.041H908.807V61.7531Z" fill="#084C50"/>
<path d="M934.408 61.7531H921.607V189.041H934.408V61.7531Z" fill="#084C50"/>
<path d="M960.009 61.7531H947.209V189.041H960.009V61.7531Z" fill="#084C50"/>
<path d="M985.61 61.7531H972.81V189.041H985.61V61.7531Z" fill="#084C50"/>
<path d="M1011.21 61.7531H998.412V189.041H1011.21V61.7531Z" fill="#084C50"/>
<path d="M1055.99 61.7531H1088L1055.99 93.575L1023.99 125.397V93.575L1055.99 61.7531Z" fill="#084C50"/>
<path d="M1152 157.219V189.041H1120L1152 157.219Z" fill="#084C50"/>
<path d="M1152 93.575V125.397L1120 157.219L1088 189.041H1056L1152 93.575Z" fill="#084C50"/>
<path d="M1120 61.7531H1152L1055.99 157.22L1023.99 189.042V157.22L1120 61.7531Z" fill="#084C50"/>
<path d="M1184 61.7531H1216L1184 93.575L1152 125.397V93.575L1184 61.7531Z" fill="#084C50"/>
<path d="M1280.01 157.219V189.041H1248L1280.01 157.219Z" fill="#084C50"/>
<path d="M1280.01 93.575V125.397L1248 157.219L1216 189.041H1184L1280.01 93.575Z" fill="#084C50"/>
<path d="M1248 61.7531H1280.01L1184 157.22L1152 189.042V157.22L1248 61.7531Z" fill="#084C50"/>
<path d="M1312.01 61.7531H1344.01L1312.01 93.575L1280.01 125.397V93.575L1312.01 61.7531Z" fill="#084C50"/>
<path d="M1408.01 157.219V189.041H1376.01L1408.01 157.219Z" fill="#084C50"/>
<path d="M1408.01 93.575V125.397L1376.01 157.219L1344.01 189.041H1312.01L1408.01 93.575Z" fill="#084C50"/>
<path d="M1376.01 61.7531H1408.01L1312.01 157.22L1280.01 189.042V157.22L1376.01 61.7531Z" fill="#084C50"/>
<path d="M1536 61.7531H1407.99V189.041H1536V61.7531Z" fill="#084C50"/>
<path d="M1664.01 61.7531C1697.96 61.7531 1730.51 75.1637 1754.52 99.0347C1778.53 122.906 1792.01 155.282 1792.01 189.041L1664.01 61.7531C1664.01 95.5118 1677.49 127.888 1701.5 151.759C1725.5 175.63 1758.06 189.041 1792.01 189.041" fill="#084C50"/>
<path d="M1920 61.7531H1791.99V74.4818H1920V61.7531Z" fill="#084C50"/>
<path d="M1920 87.2109H1791.99V99.9397H1920V87.2109Z" fill="#084C50"/>
<path d="M1920 112.668H1791.99V125.397H1920V112.668Z" fill="#084C50"/>
<path d="M1920 138.126H1791.99V150.855H1920V138.126Z" fill="#084C50"/>
<path d="M1920 163.583H1791.99V176.312H1920V163.583Z" fill="#084C50"/>
<path d="M64.0031 316.31C99.3511 316.31 128.006 287.816 128.006 252.666C128.006 217.517 99.3511 189.022 64.0031 189.022C28.6552 189.022 0 217.517 0 252.666C0 287.816 28.6552 316.31 64.0031 316.31Z" fill="#084C50"/>
<path d="M256.012 189.022H128.006V252.666H256.012V189.022Z" fill="#084C50"/>
<path d="M448.003 316.31C483.351 316.31 512.006 287.816 512.006 252.666C512.006 217.517 483.351 189.022 448.003 189.022C412.655 189.022 384 217.517 384 252.666C384 287.816 412.655 316.31 448.003 316.31Z" fill="#084C50"/>
<path d="M576.009 316.31C611.357 316.31 640.013 287.816 640.013 252.666C640.013 217.517 611.357 189.022 576.009 189.022C540.662 189.022 512.006 217.517 512.006 252.666C512.006 287.816 540.662 316.31 576.009 316.31Z" fill="#084C50"/>
<path d="M768 189.022H639.993V316.31H768V189.022Z" fill="#084C50"/>
<path d="M896.007 189.022H768V252.666H896.007V189.022Z" fill="#084C50"/>
<path d="M908.807 189.022H896.006V316.31H908.807V189.022Z" fill="#084C50"/>
<path d="M934.408 189.022H921.607V316.31H934.408V189.022Z" fill="#084C50"/>
<path d="M960.009 189.022H947.208V316.31H960.009V189.022Z" fill="#084C50"/>
<path d="M985.611 189.022H972.81V316.31H985.611V189.022Z" fill="#084C50"/>
<path d="M1011.21 189.022H998.412V316.31H1011.21V189.022Z" fill="#084C50"/>
<path d="M1440 189.022H1472L1440 220.844L1407.99 252.666V220.844L1440 189.022Z" fill="#084C50"/>
<path d="M1536 284.488V316.31H1504L1536 284.488Z" fill="#084C50"/>
<path d="M1536 220.844V252.666L1504 284.488L1472 316.31H1440L1536 220.844Z" fill="#084C50"/>
<path d="M1504 189.022H1536L1440 284.489L1407.99 316.311V284.489L1504 189.022Z" fill="#084C50"/>
<path d="M1664.01 189.022H1536V201.751H1664.01V189.022Z" fill="#084C50"/>
<path d="M1664.01 214.48H1536V227.209H1664.01V214.48Z" fill="#084C50"/>
<path d="M1664.01 239.937H1536V252.666H1664.01V239.937Z" fill="#084C50"/>
<path d="M1664.01 265.395H1536V278.123H1664.01V265.395Z" fill="#084C50"/>
<path d="M1664.01 290.852H1536V303.581H1664.01V290.852Z" fill="#084C50"/>
<path d="M512.006 316.31H384V379.954H512.006V316.31Z" fill="#084C50"/>
<path d="M671.995 316.31H703.997L671.995 348.132L639.993 379.954V348.132L671.995 316.31Z" fill="#084C50"/>
<path d="M768 411.776V443.598H735.998L768 411.776Z" fill="#084C50"/>
<path d="M767.999 348.132V379.954L735.998 411.775L703.996 443.597H671.995L767.999 348.132Z" fill="#084C50"/>
<path d="M735.998 316.31H768L671.995 411.777L639.993 443.599V411.777L735.998 316.31Z" fill="#084C50"/>
<path d="M780.801 316.31H768V443.597H780.801V316.31Z" fill="#084C50"/>
<path d="M806.402 316.31H793.602V443.597H806.402V316.31Z" fill="#084C50"/>
<path d="M832.003 316.31H819.203V443.597H832.003V316.31Z" fill="#084C50"/>
<path d="M857.604 316.31H844.804V443.597H857.604V316.31Z" fill="#084C50"/>
<path d="M883.206 316.31H870.405V443.597H883.206V316.31Z" fill="#084C50"/>
<path d="M1024.01 316.31H896.006V329.039H1024.01V316.31Z" fill="#084C50"/>
<path d="M1024.01 341.768H896.006V354.496H1024.01V341.768Z" fill="#084C50"/>
<path d="M1024.01 367.225H896.006V379.954H1024.01V367.225Z" fill="#084C50"/>
<path d="M1024.01 392.682H896.006V405.411H1024.01V392.682Z" fill="#084C50"/>
<path d="M1024.01 418.14H896.006V430.869H1024.01V418.14Z" fill="#084C50"/>
<path d="M1164.8 316.31H1152V443.597H1164.8V316.31Z" fill="#084C50"/>
<path d="M1190.4 316.31H1177.6V443.597H1190.4V316.31Z" fill="#084C50"/>
<path d="M1216 316.31H1203.2V443.597H1216V316.31Z" fill="#084C50"/>
<path d="M1241.6 316.31H1228.8V443.597H1241.6V316.31Z" fill="#084C50"/>
<path d="M1267.21 316.31H1254.41V443.597H1267.21V316.31Z" fill="#084C50"/>
<path d="M1472 443.597C1507.35 443.597 1536 415.103 1536 379.954C1536 344.804 1507.35 316.31 1472 316.31C1436.65 316.31 1407.99 344.804 1407.99 379.954C1407.99 415.103 1436.65 443.597 1472 443.597Z" fill="#084C50"/>
<path d="M1728.01 443.597C1763.36 443.597 1792.01 415.103 1792.01 379.954C1792.01 344.804 1763.36 316.31 1728.01 316.31C1692.66 316.31 1664.01 344.804 1664.01 379.954C1664.01 415.103 1692.66 443.597 1728.01 443.597Z" fill="#084C50"/>
<path d="M128.006 443.598H0V507.242H128.006V443.598Z" fill="#084C50"/>
<path d="M384 443.598H255.994V570.886H384V443.598Z" fill="#084C50"/>
<path d="M512.006 443.598H384V570.886H512.006V443.598Z" fill="#084C50"/>
<path d="M576.009 570.886C611.357 570.886 640.013 542.391 640.013 507.242C640.013 472.092 611.357 443.598 576.009 443.598C540.662 443.598 512.006 472.092 512.006 507.242C512.006 542.391 540.662 570.886 576.009 570.886Z" fill="#084C50"/>
<path d="M768 443.598H639.993V456.327H768V443.598Z" fill="#084C50"/>
<path d="M768 469.056H639.993V481.785H768V469.056Z" fill="#084C50"/>
<path d="M768 494.513H639.993V507.242H768V494.513Z" fill="#084C50"/>
<path d="M768 519.971H639.993V532.699H768V519.971Z" fill="#084C50"/>
<path d="M768 545.428H639.993V558.157H768V545.428Z" fill="#084C50"/>
<path d="M832.003 570.886C867.351 570.886 896.007 542.391 896.007 507.242C896.007 472.092 867.351 443.598 832.003 443.598C796.655 443.598 768 472.092 768 507.242C768 542.391 796.655 570.886 832.003 570.886Z" fill="#084C50"/>
<path d="M1024.01 443.598H896.006V570.886H1024.01V443.598Z" fill="#084C50"/>
<path d="M1036.79 443.598H1023.99V570.886H1036.79V443.598Z" fill="#084C50"/>
<path d="M1062.4 443.598H1049.59V570.886H1062.4V443.598Z" fill="#084C50"/>
<path d="M1088 443.598H1075.2V570.886H1088V443.598Z" fill="#084C50"/>
<path d="M1113.6 443.598H1100.8V570.886H1113.6V443.598Z" fill="#084C50"/>
<path d="M1139.2 443.598H1126.4V570.886H1139.2V443.598Z" fill="#084C50"/>
<path d="M1152 443.598C1185.95 443.598 1218.51 457.009 1242.51 480.88C1266.52 504.751 1280.01 537.127 1280.01 570.886H1152" fill="#084C50"/>
<path d="M1344.01 570.886C1379.36 570.886 1408.01 542.391 1408.01 507.242C1408.01 472.092 1379.36 443.598 1344.01 443.598C1308.66 443.598 1280.01 472.092 1280.01 507.242C1280.01 542.391 1308.66 570.886 1344.01 570.886Z" fill="#084C50"/>
<path d="M1536 443.598H1407.99V507.242H1536V443.598Z" fill="#084C50"/>
<path d="M1664.01 443.598H1536V456.327H1664.01V443.598Z" fill="#084C50"/>
<path d="M1664.01 469.056H1536V481.785H1664.01V469.056Z" fill="#084C50"/>
<path d="M1664.01 494.513H1536V507.242H1664.01V494.513Z" fill="#084C50"/>
<path d="M1664.01 519.971H1536V532.699H1664.01V519.971Z" fill="#084C50"/>
<path d="M1664.01 545.428H1536V558.157H1664.01V545.428Z" fill="#084C50"/>
<path d="M1792.01 443.598V570.886H1664.01L1792.01 443.598Z" fill="#084C50"/>
<path d="M160.008 570.866H192.009L160.008 602.688L128.006 634.51V602.688L160.008 570.866Z" fill="#084C50"/>
<path d="M256.013 666.332V698.154H224.011L256.013 666.332Z" fill="#084C50"/>
<path d="M256.012 602.688V634.51L224.011 666.332L192.009 698.154H160.008L256.012 602.688Z" fill="#084C50"/>
<path d="M224.011 570.866H256.012L160.008 666.333L128.006 698.155V666.333L224.011 570.866Z" fill="#084C50"/>
<path d="M255.994 698.154C289.943 698.154 322.502 684.744 346.508 660.872C370.514 637.001 384 604.625 384 570.866H255.994" fill="#084C50"/>
<path d="M640.013 570.866H512.006V583.595H640.013V570.866Z" fill="#084C50"/>
<path d="M640.013 596.324H512.006V609.053H640.013V596.324Z" fill="#084C50"/>
<path d="M640.013 621.782H512.006V634.51H640.013V621.782Z" fill="#084C50"/>
<path d="M640.013 647.239H512.006V659.968H640.013V647.239Z" fill="#084C50"/>
<path d="M640.013 672.697H512.006V685.425H640.013V672.697Z" fill="#084C50"/>
<path d="M639.993 570.866C673.943 570.866 706.502 584.277 730.508 608.148C754.513 632.019 768 664.395 768 698.154H639.993" fill="#084C50"/>
<path d="M896.007 570.866V698.154H768L896.007 570.866Z" fill="#084C50"/>
<path d="M1024.01 570.866H896.006V583.595H1024.01V570.866Z" fill="#084C50"/>
<path d="M1024.01 596.324H896.006V609.053H1024.01V596.324Z" fill="#084C50"/>
<path d="M1024.01 621.782H896.006V634.51H1024.01V621.782Z" fill="#084C50"/>
<path d="M1024.01 647.239H896.006V659.968H1024.01V647.239Z" fill="#084C50"/>
<path d="M1024.01 672.697H896.006V685.425H1024.01V672.697Z" fill="#084C50"/>
<path d="M1280.01 570.866V698.154H1152L1280.01 570.866Z" fill="#084C50"/>
<path d="M1280.01 570.866C1280.01 604.625 1293.49 637.001 1317.5 660.872C1341.5 684.744 1374.06 698.154 1408.01 698.154V570.866" fill="#084C50"/>
<path d="M1792.01 570.866V698.154H1664.01L1792.01 570.866Z" fill="#084C50"/>
<path d="M1791.99 570.866H1920V698.154L1791.99 570.866Z" fill="#084C50"/>
<path d="M128.006 698.154H0V761.798H128.006V698.154Z" fill="#084C50"/>
<path d="M256.012 698.154H128.006V825.441H256.012V698.154Z" fill="#084C50"/>
<path d="M384 698.154H255.994V761.798H384V698.154Z" fill="#084C50"/>
<path d="M780.801 698.154H768V825.441H780.801V698.154Z" fill="#084C50"/>
<path d="M806.402 698.154H793.602V825.441H806.402V698.154Z" fill="#084C50"/>
<path d="M832.003 698.154H819.202V825.441H832.003V698.154Z" fill="#084C50"/>
<path d="M857.605 698.154H844.804V825.441H857.605V698.154Z" fill="#084C50"/>
<path d="M883.206 698.154H870.405V825.441H883.206V698.154Z" fill="#084C50"/>
<path d="M1536 698.154H1407.99V761.798H1536V698.154Z" fill="#084C50"/>
<path d="M1696.01 698.154H1728.01L1696.01 729.976L1664.01 761.798V729.976L1696.01 698.154Z" fill="#084C50"/>
<path d="M1792.01 793.62V825.442H1760.01L1792.01 793.62Z" fill="#084C50"/>
<path d="M1792.01 729.976V761.798L1760.01 793.62L1728.01 825.442H1696.01L1792.01 729.976Z" fill="#084C50"/>
<path d="M1760.01 698.154H1792.01L1696.01 793.621L1664.01 825.443V793.621L1760.01 698.154Z" fill="#084C50"/>
<path d="M0 825.442C33.9494 825.442 66.5083 838.852 90.5141 862.724C114.52 886.595 128.006 918.971 128.006 952.73L0 825.442C0 859.201 13.4863 891.577 37.4922 915.448C61.498 939.319 94.0569 952.73 128.006 952.73" fill="#084C50"/>
<path d="M192.009 952.73C227.357 952.73 256.012 924.235 256.012 889.086C256.012 853.936 227.357 825.442 192.009 825.442C156.661 825.442 128.006 853.936 128.006 889.086C128.006 924.235 156.661 952.73 192.009 952.73Z" fill="#084C50"/>
<path d="M384 825.442H255.994V889.086H384V825.442Z" fill="#084C50"/>
<path d="M652.794 825.442H639.993V952.73H652.794V825.442Z" fill="#084C50"/>
<path d="M678.395 825.442H665.594V952.73H678.395V825.442Z" fill="#084C50"/>
<path d="M703.997 825.442H691.196V952.73H703.997V825.442Z" fill="#084C50"/>
<path d="M729.598 825.442H716.797V952.73H729.598V825.442Z" fill="#084C50"/>
<path d="M755.199 825.442H742.398V952.73H755.199V825.442Z" fill="#084C50"/>
<path d="M800.002 825.442H832.003L800.002 857.264L768 889.086V857.264L800.002 825.442Z" fill="#084C50"/>
<path d="M896.007 920.907V952.729H864.005L896.007 920.907Z" fill="#084C50"/>
<path d="M896.006 857.264V889.086L864.005 920.908L832.003 952.73H800.001L896.006 857.264Z" fill="#084C50"/>
<path d="M864.005 825.442H896.007L800.002 920.909L768 952.731V920.909L864.005 825.442Z" fill="#084C50"/>
<path d="M896.006 825.442C896.006 859.201 909.492 891.577 933.498 915.448C957.504 939.319 990.063 952.73 1024.01 952.73V825.442" fill="#084C50"/>
<path d="M1023.99 825.442C1057.94 825.442 1090.5 838.852 1114.51 862.724C1138.51 886.595 1152 918.971 1152 952.73L1023.99 825.442C1023.99 859.201 1037.48 891.577 1061.49 915.448C1085.49 939.319 1118.05 952.73 1152 952.73" fill="#084C50"/>
<path d="M1280.01 825.442H1152V889.086H1280.01V825.442Z" fill="#084C50"/>
<path d="M1664.01 825.442H1792.01V952.73L1664.01 825.442Z" fill="#084C50"/>
<path d="M1856 952.73C1891.34 952.73 1920 924.235 1920 889.086C1920 853.936 1891.34 825.442 1856 825.442C1820.65 825.442 1791.99 853.936 1791.99 889.086C1791.99 924.235 1820.65 952.73 1856 952.73Z" fill="#084C50"/>
<path d="M128.006 952.711H0V1080H128.006V952.711Z" fill="#084C50"/>
<path d="M640.013 952.711H512.006V1080H640.013V952.711Z" fill="#084C50"/>
<path d="M800.002 952.711H832.003L800.002 984.533L768 1016.36V984.533L800.002 952.711Z" fill="#084C50"/>
<path d="M896.007 1048.18V1080H864.005L896.007 1048.18Z" fill="#084C50"/>
<path d="M896.006 984.534V1016.36L864.005 1048.18L832.003 1080H800.001L896.006 984.534Z" fill="#084C50"/>
<path d="M864.005 952.711H896.007L800.002 1048.18L768 1080V1048.18L864.005 952.711Z" fill="#084C50"/>
<path d="M1088 1080C1123.34 1080 1152 1051.5 1152 1016.35C1152 981.205 1123.34 952.711 1088 952.711C1052.65 952.711 1023.99 981.205 1023.99 1016.35C1023.99 1051.5 1052.65 1080 1088 1080Z" fill="#084C50"/>
<path d="M1152 1080C1152 1063.28 1155.31 1046.73 1161.74 1031.29C1168.18 1015.84 1177.61 1001.81 1189.49 989.992C1201.38 978.173 1215.49 968.797 1231.02 962.4C1246.55 956.003 1263.2 952.711 1280.01 952.711V1080" fill="#084C50"/>
<path d="M1536 952.711H1407.99V965.44H1536V952.711Z" fill="#084C50"/>
<path d="M1536 978.169H1407.99V990.897H1536V978.169Z" fill="#084C50"/>
<path d="M1536 1003.63H1407.99V1016.36H1536V1003.63Z" fill="#084C50"/>
<path d="M1536 1029.08H1407.99V1041.81H1536V1029.08Z" fill="#084C50"/>
<path d="M1536 1054.54H1407.99V1067.27H1536V1054.54Z" fill="#084C50"/>
<path d="M1792.01 952.711H1664.01V1080H1792.01V952.711Z" fill="#084C50"/>
</svg>
