<svg width="803" height="119" viewBox="0 0 803 119" fill="none" xmlns="http://www.w3.org/2000/svg">
<path d="M39.9727 94H4.67578V43.5859H14.7656V83.9102H39.9727V94ZM58.2188 84.7891C58.5938 84.9062 58.9688 84.9883 59.3438 85.0352C59.7188 85.0586 60.0938 85.0703 60.4688 85.0703C61.4062 85.0703 62.3086 84.9414 63.1758 84.6836C64.043 84.4258 64.8516 84.0625 65.6016 83.5938C66.375 83.1016 67.0547 82.5156 67.6406 81.8359C68.25 81.1328 68.7422 80.3594 69.1172 79.5156L76.1484 86.582C75.2578 87.8477 74.2266 88.9844 73.0547 89.9922C71.9062 91 70.6523 91.8555 69.293 92.5586C67.957 93.2617 66.5391 93.7891 65.0391 94.1406C63.5625 94.5156 62.0391 94.7031 60.4688 94.7031C57.8203 94.7031 55.3242 94.2109 52.9805 93.2266C50.6602 92.2422 48.6211 90.8711 46.8633 89.1133C45.1289 87.3555 43.7578 85.2695 42.75 82.8555C41.7422 80.418 41.2383 77.7461 41.2383 74.8398C41.2383 71.8633 41.7422 69.1445 42.75 66.6836C43.7578 64.2227 45.1289 62.125 46.8633 60.3906C48.6211 58.6562 50.6602 57.3086 52.9805 56.3477C55.3242 55.3867 57.8203 54.9062 60.4688 54.9062C62.0391 54.9062 63.5742 55.0938 65.0742 55.4688C66.5742 55.8438 67.9922 56.3828 69.3281 57.0859C70.6875 57.7891 71.9531 58.6562 73.125 59.6875C74.2969 60.6953 75.3281 61.832 76.2188 63.0977L58.2188 84.7891ZM63.1406 64.9961C62.6953 64.832 62.25 64.7266 61.8047 64.6797C61.3828 64.6328 60.9375 64.6094 60.4688 64.6094C59.1562 64.6094 57.9141 64.8555 56.7422 65.3477C55.5938 65.8164 54.5859 66.4961 53.7188 67.3867C52.875 68.2773 52.207 69.3555 51.7148 70.6211C51.2227 71.8633 50.9766 73.2695 50.9766 74.8398C50.9766 75.1914 50.9883 75.5898 51.0117 76.0352C51.0586 76.4805 51.1172 76.9375 51.1875 77.4062C51.2812 77.8516 51.3867 78.2852 51.5039 78.707C51.6211 79.1289 51.7734 79.5039 51.9609 79.832L63.1406 64.9961ZM117.246 94H114.926L111.199 88.832C110.285 89.6523 109.312 90.4258 108.281 91.1523C107.273 91.8555 106.207 92.4766 105.082 93.0156C103.957 93.5312 102.797 93.9414 101.602 94.2461C100.43 94.5508 99.2344 94.7031 98.0156 94.7031C95.3672 94.7031 92.8711 94.2578 90.5273 93.3672C88.207 92.4766 86.168 91.1875 84.4102 89.5C82.6758 87.7891 81.3047 85.7031 80.2969 83.2422C79.2891 80.7812 78.7852 77.9805 78.7852 74.8398C78.7852 71.9102 79.2891 69.2266 80.2969 66.7891C81.3047 64.3281 82.6758 62.2188 84.4102 60.4609C86.168 58.7031 88.207 57.3438 90.5273 56.3828C92.8711 55.3984 95.3672 54.9062 98.0156 54.9062C99.2344 54.9062 100.441 55.0586 101.637 55.3633C102.832 55.668 103.992 56.0898 105.117 56.6289C106.242 57.168 107.309 57.8008 108.316 58.5273C109.348 59.2539 110.309 60.0391 111.199 60.8828L114.926 56.418H117.246V94ZM107.578 74.8398C107.578 73.5273 107.32 72.2617 106.805 71.043C106.312 69.8008 105.633 68.7109 104.766 67.7734C103.898 66.8125 102.879 66.0508 101.707 65.4883C100.559 64.9023 99.3281 64.6094 98.0156 64.6094C96.7031 64.6094 95.4609 64.832 94.2891 65.2773C93.1406 65.7227 92.1328 66.3789 91.2656 67.2461C90.4219 68.1133 89.7539 69.1914 89.2617 70.4805C88.7695 71.7461 88.5234 73.1992 88.5234 74.8398C88.5234 76.4805 88.7695 77.9453 89.2617 79.2344C89.7539 80.5 90.4219 81.5664 91.2656 82.4336C92.1328 83.3008 93.1406 83.957 94.2891 84.4023C95.4609 84.8477 96.7031 85.0703 98.0156 85.0703C99.3281 85.0703 100.559 84.7891 101.707 84.2266C102.879 83.6406 103.898 82.8789 104.766 81.9414C105.633 80.9805 106.312 79.8906 106.805 78.6719C107.32 77.4297 107.578 76.1523 107.578 74.8398ZM134.191 94H124.594V56.3477H126.914L130.078 60.8125C131.625 59.4062 133.383 58.3281 135.352 57.5781C137.32 56.8047 139.359 56.418 141.469 56.418H149.941V65.9805H141.469C140.461 65.9805 139.512 66.168 138.621 66.543C137.73 66.918 136.957 67.4336 136.301 68.0898C135.645 68.7461 135.129 69.5195 134.754 70.4102C134.379 71.3008 134.191 72.25 134.191 73.2578V94ZM164.004 94H154.406V56.3477H156.727L159.891 60.0039C161.438 58.5977 163.184 57.5195 165.129 56.7695C167.098 55.9961 169.148 55.6094 171.281 55.6094C173.578 55.6094 175.746 56.0547 177.785 56.9453C179.824 57.8125 181.605 59.0195 183.129 60.5664C184.652 62.0898 185.848 63.8828 186.715 65.9453C187.605 67.9844 188.051 70.1641 188.051 72.4844V94H178.453V72.4844C178.453 71.5 178.266 70.5742 177.891 69.707C177.516 68.8164 177 68.043 176.344 67.3867C175.688 66.7305 174.926 66.2148 174.059 65.8398C173.191 65.4648 172.266 65.2773 171.281 65.2773C170.273 65.2773 169.324 65.4648 168.434 65.8398C167.543 66.2148 166.77 66.7305 166.113 67.3867C165.457 68.043 164.941 68.8164 164.566 69.707C164.191 70.5742 164.004 71.5 164.004 72.4844V94Z" fill="#FAF5E4"/>
<path d="M225.328 89.2188C225.328 90.3438 225.125 91.4062 224.719 92.4062C224.312 93.375 223.75 94.2188 223.031 94.9375C222.312 95.6562 221.469 96.2188 220.5 96.625C219.531 97.0625 218.484 97.2812 217.359 97.2812C216.266 97.2812 215.219 97.0625 214.219 96.625C213.25 96.2188 212.391 95.6562 211.641 94.9375C210.922 94.2188 210.344 93.375 209.906 92.4062C209.5 91.4062 209.297 90.3438 209.297 89.2188C209.297 88.125 209.5 87.0938 209.906 86.125C210.344 85.1562 210.922 84.3125 211.641 83.5938C212.391 82.875 213.25 82.3125 214.219 81.9062C215.219 81.4688 216.266 81.25 217.359 81.25C218.484 81.25 219.531 81.4688 220.5 81.9062C221.469 82.3125 222.312 82.875 223.031 83.5938C223.75 84.3125 224.312 85.1562 224.719 86.125C225.125 87.0938 225.328 88.125 225.328 89.2188Z" fill="#FA7921"/>
<path d="M295.234 94H260.676V43.5859H295.234V53.6758H270.766V63.7656H287.324V73.8555H270.766V83.9102H295.234V94ZM335.945 94H324.203L316.715 82.4688L309.156 94H297.414L311.16 74.6992L297.414 56.1367H309.156L316.715 66.9297L324.203 56.1367H335.945L322.164 74.6992L335.945 94ZM349.059 108.344H339.391V56.3477H341.711L345.543 60.8828C346.41 60.0625 347.359 59.2891 348.391 58.5625C349.422 57.8359 350.488 57.2148 351.59 56.6992C352.715 56.1602 353.875 55.7383 355.07 55.4336C356.266 55.1289 357.473 54.9766 358.691 54.9766C361.34 54.9766 363.824 55.457 366.145 56.418C368.488 57.3555 370.527 58.6914 372.262 60.4258C374.02 62.1602 375.402 64.2578 376.41 66.7188C377.418 69.1562 377.922 71.8633 377.922 74.8398C377.922 77.9336 377.418 80.7227 376.41 83.207C375.402 85.668 374.02 87.7656 372.262 89.5C370.527 91.2109 368.488 92.5234 366.145 93.4375C363.824 94.3516 361.34 94.8086 358.691 94.8086C357.848 94.8086 357.004 94.7148 356.16 94.5273C355.34 94.3398 354.52 94.0938 353.699 93.7891C352.902 93.4609 352.105 93.0977 351.309 92.6992C350.535 92.3008 349.785 91.8906 349.059 91.4688V108.344ZM368.289 74.8398C368.289 73.2461 368.031 71.8164 367.516 70.5508C367.023 69.2852 366.344 68.2188 365.477 67.3516C364.609 66.4609 363.59 65.7812 362.418 65.3125C361.246 64.8438 360.004 64.6094 358.691 64.6094C357.379 64.6094 356.137 64.8438 354.965 65.3125C353.816 65.7812 352.809 66.4609 351.941 67.3516C351.074 68.2188 350.383 69.2852 349.867 70.5508C349.375 71.8164 349.129 73.2461 349.129 74.8398C349.129 76.3633 349.375 77.7578 349.867 79.0234C350.383 80.2891 351.074 81.3672 351.941 82.2578C352.809 83.1484 353.816 83.8398 354.965 84.332C356.137 84.8242 357.379 85.0703 358.691 85.0703C360.004 85.0703 361.246 84.8242 362.418 84.332C363.59 83.8398 364.609 83.1484 365.477 82.2578C366.344 81.3672 367.023 80.2891 367.516 79.0234C368.031 77.7578 368.289 76.3633 368.289 74.8398ZM392.934 94H383.266V41.3711H392.934V94ZM436.668 74.8398C436.668 77.6523 436.164 80.2773 435.156 82.7148C434.148 85.1289 432.777 87.2266 431.043 89.0078C429.309 90.7656 427.27 92.1602 424.926 93.1914C422.605 94.1992 420.109 94.7031 417.438 94.7031C414.789 94.7031 412.293 94.1992 409.949 93.1914C407.629 92.1602 405.59 90.7656 403.832 89.0078C402.098 87.2266 400.727 85.1289 399.719 82.7148C398.711 80.2773 398.207 77.6523 398.207 74.8398C398.207 71.9805 398.711 69.332 399.719 66.8945C400.727 64.457 402.098 62.3594 403.832 60.6016C405.59 58.8203 407.629 57.4258 409.949 56.418C412.293 55.4102 414.789 54.9062 417.438 54.9062C420.109 54.9062 422.605 55.3867 424.926 56.3477C427.27 57.2852 429.309 58.6328 431.043 60.3906C432.777 62.125 434.148 64.2227 435.156 66.6836C436.164 69.1211 436.668 71.8398 436.668 74.8398ZM427 74.8398C427 73.293 426.742 71.8984 426.227 70.6562C425.734 69.3906 425.055 68.3125 424.188 67.4219C423.32 66.5078 422.301 65.8164 421.129 65.3477C419.98 64.8555 418.75 64.6094 417.438 64.6094C416.125 64.6094 414.883 64.8555 413.711 65.3477C412.562 65.8164 411.555 66.5078 410.688 67.4219C409.844 68.3125 409.176 69.3906 408.684 70.6562C408.191 71.8984 407.945 73.293 407.945 74.8398C407.945 76.293 408.191 77.6406 408.684 78.8828C409.176 80.125 409.844 81.2031 410.688 82.1172C411.555 83.0312 412.562 83.7578 413.711 84.2969C414.883 84.8125 416.125 85.0703 417.438 85.0703C418.75 85.0703 419.98 84.8242 421.129 84.332C422.301 83.8398 423.32 83.1484 424.188 82.2578C425.055 81.3672 425.734 80.2891 426.227 79.0234C426.742 77.7578 427 76.3633 427 74.8398ZM451.574 94H441.977V56.3477H444.297L447.461 60.8125C449.008 59.4062 450.766 58.3281 452.734 57.5781C454.703 56.8047 456.742 56.418 458.852 56.418H467.324V65.9805H458.852C457.844 65.9805 456.895 66.168 456.004 66.543C455.113 66.918 454.34 67.4336 453.684 68.0898C453.027 68.7461 452.512 69.5195 452.137 70.4102C451.762 71.3008 451.574 72.25 451.574 73.2578V94ZM486.062 84.7891C486.438 84.9062 486.812 84.9883 487.188 85.0352C487.562 85.0586 487.938 85.0703 488.312 85.0703C489.25 85.0703 490.152 84.9414 491.02 84.6836C491.887 84.4258 492.695 84.0625 493.445 83.5938C494.219 83.1016 494.898 82.5156 495.484 81.8359C496.094 81.1328 496.586 80.3594 496.961 79.5156L503.992 86.582C503.102 87.8477 502.07 88.9844 500.898 89.9922C499.75 91 498.496 91.8555 497.137 92.5586C495.801 93.2617 494.383 93.7891 492.883 94.1406C491.406 94.5156 489.883 94.7031 488.312 94.7031C485.664 94.7031 483.168 94.2109 480.824 93.2266C478.504 92.2422 476.465 90.8711 474.707 89.1133C472.973 87.3555 471.602 85.2695 470.594 82.8555C469.586 80.418 469.082 77.7461 469.082 74.8398C469.082 71.8633 469.586 69.1445 470.594 66.6836C471.602 64.2227 472.973 62.125 474.707 60.3906C476.465 58.6562 478.504 57.3086 480.824 56.3477C483.168 55.3867 485.664 54.9062 488.312 54.9062C489.883 54.9062 491.418 55.0938 492.918 55.4688C494.418 55.8438 495.836 56.3828 497.172 57.0859C498.531 57.7891 499.797 58.6562 500.969 59.6875C502.141 60.6953 503.172 61.832 504.062 63.0977L486.062 84.7891ZM490.984 64.9961C490.539 64.832 490.094 64.7266 489.648 64.6797C489.227 64.6328 488.781 64.6094 488.312 64.6094C487 64.6094 485.758 64.8555 484.586 65.3477C483.438 65.8164 482.43 66.4961 481.562 67.3867C480.719 68.2773 480.051 69.3555 479.559 70.6211C479.066 71.8633 478.82 73.2695 478.82 74.8398C478.82 75.1914 478.832 75.5898 478.855 76.0352C478.902 76.4805 478.961 76.9375 479.031 77.4062C479.125 77.8516 479.23 78.2852 479.348 78.707C479.465 79.1289 479.617 79.5039 479.805 79.832L490.984 64.9961Z" fill="#FAF5E4"/>
<path d="M539.336 89.2188C539.336 90.3438 539.133 91.4062 538.727 92.4062C538.32 93.375 537.758 94.2188 537.039 94.9375C536.32 95.6562 535.477 96.2188 534.508 96.625C533.539 97.0625 532.492 97.2812 531.367 97.2812C530.273 97.2812 529.227 97.0625 528.227 96.625C527.258 96.2188 526.398 95.6562 525.648 94.9375C524.93 94.2188 524.352 93.375 523.914 92.4062C523.508 91.4062 523.305 90.3438 523.305 89.2188C523.305 88.125 523.508 87.0938 523.914 86.125C524.352 85.1562 524.93 84.3125 525.648 83.5938C526.398 82.875 527.258 82.3125 528.227 81.9062C529.227 81.4688 530.273 81.25 531.367 81.25C532.492 81.25 533.539 81.4688 534.508 81.9062C535.477 82.3125 536.32 82.875 537.039 83.5938C537.758 84.3125 538.32 85.1562 538.727 86.125C539.133 87.0938 539.336 88.125 539.336 89.2188Z" fill="#FA7921"/>
<path d="M604.348 73.8555V63.7656C604.348 62.3828 604.078 61.082 603.539 59.8633C603.023 58.6211 602.309 57.543 601.395 56.6289C600.48 55.7148 599.402 55 598.16 54.4844C596.941 53.9453 595.641 53.6758 594.258 53.6758C592.875 53.6758 591.562 53.9453 590.32 54.4844C589.102 55 588.035 55.7148 587.121 56.6289C586.207 57.543 585.48 58.6211 584.941 59.8633C584.426 61.082 584.168 62.3828 584.168 63.7656V73.8555H604.348ZM614.438 94H604.348V83.9102H584.168V94H574.113V63.7656C574.113 60.9766 574.641 58.3633 575.695 55.9258C576.75 53.4648 578.18 51.3203 579.984 49.4922C581.812 47.6641 583.945 46.2227 586.383 45.168C588.844 44.1133 591.469 43.5859 594.258 43.5859C597.047 43.5859 599.66 44.1133 602.098 45.168C604.559 46.2227 606.703 47.6641 608.531 49.4922C610.359 51.3203 611.801 53.4648 612.855 55.9258C613.91 58.3633 614.438 60.9766 614.438 63.7656V94ZM631.84 108.344H622.172V56.3477H624.492L628.324 60.8828C629.191 60.0625 630.141 59.2891 631.172 58.5625C632.203 57.8359 633.27 57.2148 634.371 56.6992C635.496 56.1602 636.656 55.7383 637.852 55.4336C639.047 55.1289 640.254 54.9766 641.473 54.9766C644.121 54.9766 646.605 55.457 648.926 56.418C651.27 57.3555 653.309 58.6914 655.043 60.4258C656.801 62.1602 658.184 64.2578 659.191 66.7188C660.199 69.1562 660.703 71.8633 660.703 74.8398C660.703 77.9336 660.199 80.7227 659.191 83.207C658.184 85.668 656.801 87.7656 655.043 89.5C653.309 91.2109 651.27 92.5234 648.926 93.4375C646.605 94.3516 644.121 94.8086 641.473 94.8086C640.629 94.8086 639.785 94.7148 638.941 94.5273C638.121 94.3398 637.301 94.0938 636.48 93.7891C635.684 93.4609 634.887 93.0977 634.09 92.6992C633.316 92.3008 632.566 91.8906 631.84 91.4688V108.344ZM651.07 74.8398C651.07 73.2461 650.812 71.8164 650.297 70.5508C649.805 69.2852 649.125 68.2188 648.258 67.3516C647.391 66.4609 646.371 65.7812 645.199 65.3125C644.027 64.8438 642.785 64.6094 641.473 64.6094C640.16 64.6094 638.918 64.8438 637.746 65.3125C636.598 65.7812 635.59 66.4609 634.723 67.3516C633.855 68.2188 633.164 69.2852 632.648 70.5508C632.156 71.8164 631.91 73.2461 631.91 74.8398C631.91 76.3633 632.156 77.7578 632.648 79.0234C633.164 80.2891 633.855 81.3672 634.723 82.2578C635.59 83.1484 636.598 83.8398 637.746 84.332C638.918 84.8242 640.16 85.0703 641.473 85.0703C642.785 85.0703 644.027 84.8242 645.199 84.332C646.371 83.8398 647.391 83.1484 648.258 82.2578C649.125 81.3672 649.805 80.2891 650.297 79.0234C650.812 77.7578 651.07 76.3633 651.07 74.8398ZM675.715 108.344H666.047V56.3477H668.367L672.199 60.8828C673.066 60.0625 674.016 59.2891 675.047 58.5625C676.078 57.8359 677.145 57.2148 678.246 56.6992C679.371 56.1602 680.531 55.7383 681.727 55.4336C682.922 55.1289 684.129 54.9766 685.348 54.9766C687.996 54.9766 690.48 55.457 692.801 56.418C695.145 57.3555 697.184 58.6914 698.918 60.4258C700.676 62.1602 702.059 64.2578 703.066 66.7188C704.074 69.1562 704.578 71.8633 704.578 74.8398C704.578 77.9336 704.074 80.7227 703.066 83.207C702.059 85.668 700.676 87.7656 698.918 89.5C697.184 91.2109 695.145 92.5234 692.801 93.4375C690.48 94.3516 687.996 94.8086 685.348 94.8086C684.504 94.8086 683.66 94.7148 682.816 94.5273C681.996 94.3398 681.176 94.0938 680.355 93.7891C679.559 93.4609 678.762 93.0977 677.965 92.6992C677.191 92.3008 676.441 91.8906 675.715 91.4688V108.344ZM694.945 74.8398C694.945 73.2461 694.688 71.8164 694.172 70.5508C693.68 69.2852 693 68.2188 692.133 67.3516C691.266 66.4609 690.246 65.7812 689.074 65.3125C687.902 64.8438 686.66 64.6094 685.348 64.6094C684.035 64.6094 682.793 64.8438 681.621 65.3125C680.473 65.7812 679.465 66.4609 678.598 67.3516C677.73 68.2188 677.039 69.2852 676.523 70.5508C676.031 71.8164 675.785 73.2461 675.785 74.8398C675.785 76.3633 676.031 77.7578 676.523 79.0234C677.039 80.2891 677.73 81.3672 678.598 82.2578C679.465 83.1484 680.473 83.8398 681.621 84.332C682.793 84.8242 684.035 85.0703 685.348 85.0703C686.66 85.0703 687.902 84.8242 689.074 84.332C690.246 83.8398 691.266 83.1484 692.133 82.2578C693 81.3672 693.68 80.2891 694.172 79.0234C694.688 77.7578 694.945 76.3633 694.945 74.8398ZM719.59 94H709.922V41.3711H719.59V94ZM736.008 108.344V98.6758L741.352 98.7461C742.289 98.7461 743.191 98.5938 744.059 98.2891C744.926 97.9844 745.723 97.5625 746.449 97.0234C747.199 96.4844 747.855 95.8398 748.418 95.0898C748.98 94.3633 749.438 93.5664 749.789 92.6992C748.734 93.1445 747.656 93.5898 746.555 94.0352C745.477 94.4805 744.387 94.7031 743.285 94.7031C740.965 94.7031 738.785 94.293 736.746 93.4727C734.707 92.6523 732.914 91.4922 731.367 89.9922C729.844 88.4688 728.637 86.6289 727.746 84.4727C726.879 82.293 726.445 79.8555 726.445 77.1602V56.3477H736.008V77.1602C736.008 78.4961 736.195 79.668 736.57 80.6758C736.969 81.6602 737.496 82.4922 738.152 83.1719C738.809 83.8281 739.57 84.3203 740.438 84.6484C741.328 84.9766 742.277 85.1406 743.285 85.1406C744.27 85.1406 745.195 84.918 746.062 84.4727C746.953 84.0039 747.727 83.3945 748.383 82.6445C749.039 81.8945 749.555 81.0508 749.93 80.1133C750.305 79.1523 750.492 78.168 750.492 77.1602V56.3477H760.16V89.2539C760.137 91.9023 759.621 94.3867 758.613 96.707C757.605 99.0273 756.223 101.055 754.465 102.789C752.73 104.523 750.703 105.895 748.383 106.902C746.062 107.91 743.578 108.414 740.93 108.414L736.008 108.344Z" fill="#FAF5E4"/>
<path d="M797.93 89.2188C797.93 90.3438 797.727 91.4062 797.32 92.4062C796.914 93.375 796.352 94.2188 795.633 94.9375C794.914 95.6562 794.07 96.2188 793.102 96.625C792.133 97.0625 791.086 97.2812 789.961 97.2812C788.867 97.2812 787.82 97.0625 786.82 96.625C785.852 96.2188 784.992 95.6562 784.242 94.9375C783.523 94.2188 782.945 93.375 782.508 92.4062C782.102 91.4062 781.898 90.3438 781.898 89.2188C781.898 88.125 782.102 87.0938 782.508 86.125C782.945 85.1562 783.523 84.3125 784.242 83.5938C784.992 82.875 785.852 82.3125 786.82 81.9062C787.82 81.4688 788.867 81.25 789.961 81.25C791.086 81.25 792.133 81.4688 793.102 81.9062C794.07 82.3125 794.914 82.875 795.633 83.5938C796.352 84.3125 796.914 85.1562 797.32 86.125C797.727 87.0938 797.93 88.125 797.93 89.2188Z" fill="#FA7921"/>
</svg>
