<svg width="748" height="310" viewBox="0 0 748 310" fill="none" xmlns="http://www.w3.org/2000/svg">
<path d="M34.4531 71H21.0469V17.2344H0.84375V3.78125H54.6094V17.2344H34.4531V71ZM101.109 71H98.0156L93.0469 64.1094C91.8281 65.2031 90.5312 66.2344 89.1562 67.2031C87.8125 68.1406 86.3906 68.9688 84.8906 69.6875C83.3906 70.375 81.8438 70.9219 80.25 71.3281C78.6875 71.7344 77.0938 71.9375 75.4688 71.9375C71.9375 71.9375 68.6094 71.3438 65.4844 70.1562C62.3906 68.9688 59.6719 67.25 57.3281 65C55.0156 62.7188 53.1875 59.9375 51.8438 56.6562C50.5 53.375 49.8281 49.6406 49.8281 45.4531C49.8281 41.5469 50.5 37.9688 51.8438 34.7188C53.1875 31.4375 55.0156 28.625 57.3281 26.2812C59.6719 23.9375 62.3906 22.125 65.4844 20.8438C68.6094 19.5312 71.9375 18.875 75.4688 18.875C77.0938 18.875 78.7031 19.0781 80.2969 19.4844C81.8906 19.8906 83.4375 20.4531 84.9375 21.1719C86.4375 21.8906 87.8594 22.7344 89.2031 23.7031C90.5781 24.6719 91.8594 25.7188 93.0469 26.8438L98.0156 20.8906H101.109V71ZM88.2188 45.4531C88.2188 43.7031 87.875 42.0156 87.1875 40.3906C86.5312 38.7344 85.625 37.2812 84.4688 36.0312C83.3125 34.75 81.9531 33.7344 80.3906 32.9844C78.8594 32.2031 77.2188 31.8125 75.4688 31.8125C73.7188 31.8125 72.0625 32.1094 70.5 32.7031C68.9688 33.2969 67.625 34.1719 66.4688 35.3281C65.3438 36.4844 64.4531 37.9219 63.7969 39.6406C63.1406 41.3281 62.8125 43.2656 62.8125 45.4531C62.8125 47.6406 63.1406 49.5938 63.7969 51.3125C64.4531 53 65.3438 54.4219 66.4688 55.5781C67.625 56.7344 68.9688 57.6094 70.5 58.2031C72.0625 58.7969 73.7188 59.0938 75.4688 59.0938C77.2188 59.0938 78.8594 58.7188 80.3906 57.9688C81.9531 57.1875 83.3125 56.1719 84.4688 54.9219C85.625 53.6406 86.5312 52.1875 87.1875 50.5625C87.875 48.9062 88.2188 47.2031 88.2188 45.4531ZM123.797 71H110.906V0.828125H123.797V45.0781L142.875 20.8906H157.594L140.953 41.7969L157.594 71H142.875L132.703 52.7656L123.797 64.5781V71ZM181.031 58.7188C181.531 58.875 182.031 58.9844 182.531 59.0469C183.031 59.0781 183.531 59.0938 184.031 59.0938C185.281 59.0938 186.484 58.9219 187.641 58.5781C188.797 58.2344 189.875 57.75 190.875 57.125C191.906 56.4688 192.812 55.6875 193.594 54.7812C194.406 53.8438 195.062 52.8125 195.562 51.6875L204.938 61.1094C203.75 62.7969 202.375 64.3125 200.812 65.6562C199.281 67 197.609 68.1406 195.797 69.0781C194.016 70.0156 192.125 70.7188 190.125 71.1875C188.156 71.6875 186.125 71.9375 184.031 71.9375C180.5 71.9375 177.172 71.2812 174.047 69.9688C170.953 68.6562 168.234 66.8281 165.891 64.4844C163.578 62.1406 161.75 59.3594 160.406 56.1406C159.062 52.8906 158.391 49.3281 158.391 45.4531C158.391 41.4844 159.062 37.8594 160.406 34.5781C161.75 31.2969 163.578 28.5 165.891 26.1875C168.234 23.875 170.953 22.0781 174.047 20.7969C177.172 19.5156 180.5 18.875 184.031 18.875C186.125 18.875 188.172 19.125 190.172 19.625C192.172 20.125 194.062 20.8438 195.844 21.7812C197.656 22.7188 199.344 23.875 200.906 25.25C202.469 26.5938 203.844 28.1094 205.031 29.7969L181.031 58.7188ZM187.594 32.3281C187 32.1094 186.406 31.9688 185.812 31.9062C185.25 31.8438 184.656 31.8125 184.031 31.8125C182.281 31.8125 180.625 32.1406 179.062 32.7969C177.531 33.4219 176.188 34.3281 175.031 35.5156C173.906 36.7031 173.016 38.1406 172.359 39.8281C171.703 41.4844 171.375 43.3594 171.375 45.4531C171.375 45.9219 171.391 46.4531 171.422 47.0469C171.484 47.6406 171.562 48.25 171.656 48.875C171.781 49.4688 171.922 50.0469 172.078 50.6094C172.234 51.1719 172.438 51.6719 172.688 52.1094L187.594 32.3281ZM250.5 90.125V77.2344L257.625 77.3281C258.875 77.3281 260.078 77.125 261.234 76.7188C262.391 76.3125 263.453 75.75 264.422 75.0312C265.422 74.3125 266.297 73.4531 267.047 72.4531C267.797 71.4844 268.406 70.4219 268.875 69.2656C267.469 69.8594 266.031 70.4531 264.562 71.0469C263.125 71.6406 261.672 71.9375 260.203 71.9375C257.109 71.9375 254.203 71.3906 251.484 70.2969C248.766 69.2031 246.375 67.6562 244.312 65.6562C242.281 63.625 240.672 61.1719 239.484 58.2969C238.328 55.3906 237.75 52.1406 237.75 48.5469V20.7969H250.5V48.5469C250.5 50.3281 250.75 51.8906 251.25 53.2344C251.781 54.5469 252.484 55.6562 253.359 56.5625C254.234 57.4375 255.25 58.0938 256.406 58.5312C257.594 58.9688 258.859 59.1875 260.203 59.1875C261.516 59.1875 262.75 58.8906 263.906 58.2969C265.094 57.6719 266.125 56.8594 267 55.8594C267.875 54.8594 268.562 53.7344 269.062 52.4844C269.562 51.2031 269.812 49.8906 269.812 48.5469V20.7969H282.703V64.6719C282.672 68.2031 281.984 71.5156 280.641 74.6094C279.297 77.7031 277.453 80.4062 275.109 82.7188C272.797 85.0312 270.094 86.8594 267 88.2031C263.906 89.5469 260.594 90.2188 257.062 90.2188L250.5 90.125ZM341.016 45.4531C341.016 49.2031 340.344 52.7031 339 55.9531C337.656 59.1719 335.828 61.9688 333.516 64.3438C331.203 66.6875 328.484 68.5469 325.359 69.9219C322.266 71.2656 318.938 71.9375 315.375 71.9375C311.844 71.9375 308.516 71.2656 305.391 69.9219C302.297 68.5469 299.578 66.6875 297.234 64.3438C294.922 61.9688 293.094 59.1719 291.75 55.9531C290.406 52.7031 289.734 49.2031 289.734 45.4531C289.734 41.6406 290.406 38.1094 291.75 34.8594C293.094 31.6094 294.922 28.8125 297.234 26.4688C299.578 24.0938 302.297 22.2344 305.391 20.8906C308.516 19.5469 311.844 18.875 315.375 18.875C318.938 18.875 322.266 19.5156 325.359 20.7969C328.484 22.0469 331.203 23.8438 333.516 26.1875C335.828 28.5 337.656 31.2969 339 34.5781C340.344 37.8281 341.016 41.4531 341.016 45.4531ZM328.125 45.4531C328.125 43.3906 327.781 41.5312 327.094 39.875C326.438 38.1875 325.531 36.75 324.375 35.5625C323.219 34.3438 321.859 33.4219 320.297 32.7969C318.766 32.1406 317.125 31.8125 315.375 31.8125C313.625 31.8125 311.969 32.1406 310.406 32.7969C308.875 33.4219 307.531 34.3438 306.375 35.5625C305.25 36.75 304.359 38.1875 303.703 39.875C303.047 41.5312 302.719 43.3906 302.719 45.4531C302.719 47.3906 303.047 49.1875 303.703 50.8438C304.359 52.5 305.25 53.9375 306.375 55.1562C307.531 56.375 308.875 57.3438 310.406 58.0625C311.969 58.75 313.625 59.0938 315.375 59.0938C317.125 59.0938 318.766 58.7656 320.297 58.1094C321.859 57.4531 323.219 56.5312 324.375 55.3438C325.531 54.1562 326.438 52.7188 327.094 51.0312C327.781 49.3438 328.125 47.4844 328.125 45.4531ZM384.984 65.1406C383.953 66.0781 382.844 66.9688 381.656 67.8125C380.5 68.625 379.281 69.3438 378 69.9688C376.719 70.5625 375.391 71.0312 374.016 71.375C372.672 71.75 371.297 71.9375 369.891 71.9375C366.797 71.9375 363.891 71.3906 361.172 70.2969C358.453 69.2031 356.062 67.6562 354 65.6562C351.969 63.625 350.359 61.1719 349.172 58.2969C348.016 55.3906 347.438 52.1406 347.438 48.5469V20.7969H360.188V48.5469C360.188 50.2344 360.438 51.75 360.938 53.0938C361.469 54.4062 362.172 55.5156 363.047 56.4219C363.922 57.3281 364.938 58.0156 366.094 58.4844C367.281 58.9531 368.547 59.1875 369.891 59.1875C371.203 59.1875 372.438 58.8906 373.594 58.2969C374.781 57.6719 375.812 56.8594 376.688 55.8594C377.562 54.8594 378.25 53.7344 378.75 52.4844C379.25 51.2031 379.5 49.8906 379.5 48.5469V20.7969H392.297V71H389.203L384.984 65.1406ZM414.891 71H402.094V20.7969H405.188L409.406 26.75C411.469 24.875 413.812 23.4375 416.438 22.4375C419.062 21.4062 421.781 20.8906 424.594 20.8906H435.891V33.6406H424.594C423.25 33.6406 421.984 33.8906 420.797 34.3906C419.609 34.8906 418.578 35.5781 417.703 36.4531C416.828 37.3281 416.141 38.3594 415.641 39.5469C415.141 40.7344 414.891 42 414.891 43.3438V71ZM447.047 190C443.953 190 441.047 189.422 438.328 188.266C435.609 187.078 433.219 185.469 431.156 183.438C429.125 181.375 427.516 178.984 426.328 176.266C425.172 173.547 424.594 170.641 424.594 167.547V152.641H418.359V139.891H424.594V119.828H437.344V139.891H456.75V152.641H437.344V167.547C437.344 168.891 437.594 170.156 438.094 171.344C438.594 172.5 439.281 173.516 440.156 174.391C441.031 175.266 442.062 175.969 443.25 176.5C444.438 177 445.703 177.25 447.047 177.25H456.75V190H447.047ZM512.484 164.453C512.484 168.203 511.812 171.703 510.469 174.953C509.125 178.172 507.297 180.969 504.984 183.344C502.672 185.688 499.953 187.547 496.828 188.922C493.734 190.266 490.406 190.938 486.844 190.938C483.312 190.938 479.984 190.266 476.859 188.922C473.766 187.547 471.047 185.688 468.703 183.344C466.391 180.969 464.562 178.172 463.219 174.953C461.875 171.703 461.203 168.203 461.203 164.453C461.203 160.641 461.875 157.109 463.219 153.859C464.562 150.609 466.391 147.812 468.703 145.469C471.047 143.094 473.766 141.234 476.859 139.891C479.984 138.547 483.312 137.875 486.844 137.875C490.406 137.875 493.734 138.516 496.828 139.797C499.953 141.047 502.672 142.844 504.984 145.188C507.297 147.5 509.125 150.297 510.469 153.578C511.812 156.828 512.484 160.453 512.484 164.453ZM499.594 164.453C499.594 162.391 499.25 160.531 498.562 158.875C497.906 157.188 497 155.75 495.844 154.562C494.688 153.344 493.328 152.422 491.766 151.797C490.234 151.141 488.594 150.812 486.844 150.812C485.094 150.812 483.438 151.141 481.875 151.797C480.344 152.422 479 153.344 477.844 154.562C476.719 155.75 475.828 157.188 475.172 158.875C474.516 160.531 474.188 162.391 474.188 164.453C474.188 166.391 474.516 168.188 475.172 169.844C475.828 171.5 476.719 172.938 477.844 174.156C479 175.375 480.344 176.344 481.875 177.062C483.438 177.75 485.094 178.094 486.844 178.094C488.594 178.094 490.234 177.766 491.766 177.109C493.328 176.453 494.688 175.531 495.844 174.344C497 173.156 497.906 171.719 498.562 170.031C499.25 168.344 499.594 166.484 499.594 164.453ZM601.594 190H587.203L561.281 145.75V190H547.828V122.781H562.219L588.141 167.078V122.781H601.594V190ZM631.969 177.719C632.469 177.875 632.969 177.984 633.469 178.047C633.969 178.078 634.469 178.094 634.969 178.094C636.219 178.094 637.422 177.922 638.578 177.578C639.734 177.234 640.812 176.75 641.812 176.125C642.844 175.469 643.75 174.688 644.531 173.781C645.344 172.844 646 171.812 646.5 170.688L655.875 180.109C654.688 181.797 653.312 183.312 651.75 184.656C650.219 186 648.547 187.141 646.734 188.078C644.953 189.016 643.062 189.719 641.062 190.188C639.094 190.688 637.062 190.938 634.969 190.938C631.438 190.938 628.109 190.281 624.984 188.969C621.891 187.656 619.172 185.828 616.828 183.484C614.516 181.141 612.688 178.359 611.344 175.141C610 171.891 609.328 168.328 609.328 164.453C609.328 160.484 610 156.859 611.344 153.578C612.688 150.297 614.516 147.5 616.828 145.188C619.172 142.875 621.891 141.078 624.984 139.797C628.109 138.516 631.438 137.875 634.969 137.875C637.062 137.875 639.109 138.125 641.109 138.625C643.109 139.125 645 139.844 646.781 140.781C648.594 141.719 650.281 142.875 651.844 144.25C653.406 145.594 654.781 147.109 655.969 148.797L631.969 177.719ZM638.531 151.328C637.938 151.109 637.344 150.969 636.75 150.906C636.188 150.844 635.594 150.812 634.969 150.812C633.219 150.812 631.562 151.141 630 151.797C628.469 152.422 627.125 153.328 625.969 154.516C624.844 155.703 623.953 157.141 623.297 158.828C622.641 160.484 622.312 162.359 622.312 164.453C622.312 164.922 622.328 165.453 622.359 166.047C622.422 166.641 622.5 167.25 622.594 167.875C622.719 168.469 622.859 169.047 623.016 169.609C623.172 170.172 623.375 170.672 623.625 171.109L638.531 151.328ZM708.188 190H692.531L682.547 174.625L672.469 190H656.812L675.141 164.266L656.812 139.516H672.469L682.547 153.906L692.531 139.516H708.188L689.812 164.266L708.188 190ZM737.953 190C734.859 190 731.953 189.422 729.234 188.266C726.516 187.078 724.125 185.469 722.062 183.438C720.031 181.375 718.422 178.984 717.234 176.266C716.078 173.547 715.5 170.641 715.5 167.547V152.641H709.266V139.891H715.5V119.828H728.25V139.891H747.656V152.641H728.25V167.547C728.25 168.891 728.5 170.156 729 171.344C729.5 172.5 730.188 173.516 731.062 174.391C731.938 175.266 732.969 175.969 734.156 176.5C735.344 177 736.609 177.25 737.953 177.25H747.656V190H737.953ZM53.2969 309H6.23438V241.781H19.6875V295.547H53.2969V309ZM77.625 296.719C78.125 296.875 78.625 296.984 79.125 297.047C79.625 297.078 80.125 297.094 80.625 297.094C81.875 297.094 83.0781 296.922 84.2344 296.578C85.3906 296.234 86.4688 295.75 87.4688 295.125C88.5 294.469 89.4062 293.688 90.1875 292.781C91 291.844 91.6562 290.812 92.1562 289.688L101.531 299.109C100.344 300.797 98.9688 302.312 97.4062 303.656C95.875 305 94.2031 306.141 92.3906 307.078C90.6094 308.016 88.7188 308.719 86.7188 309.188C84.75 309.688 82.7188 309.938 80.625 309.938C77.0938 309.938 73.7656 309.281 70.6406 307.969C67.5469 306.656 64.8281 304.828 62.4844 302.484C60.1719 300.141 58.3438 297.359 57 294.141C55.6562 290.891 54.9844 287.328 54.9844 283.453C54.9844 279.484 55.6562 275.859 57 272.578C58.3438 269.297 60.1719 266.5 62.4844 264.188C64.8281 261.875 67.5469 260.078 70.6406 258.797C73.7656 257.516 77.0938 256.875 80.625 256.875C82.7188 256.875 84.7656 257.125 86.7656 257.625C88.7656 258.125 90.6562 258.844 92.4375 259.781C94.25 260.719 95.9375 261.875 97.5 263.25C99.0625 264.594 100.438 266.109 101.625 267.797L77.625 296.719ZM84.1875 270.328C83.5938 270.109 83 269.969 82.4062 269.906C81.8438 269.844 81.25 269.812 80.625 269.812C78.875 269.812 77.2188 270.141 75.6562 270.797C74.125 271.422 72.7812 272.328 71.625 273.516C70.5 274.703 69.6094 276.141 68.9531 277.828C68.2969 279.484 67.9688 281.359 67.9688 283.453C67.9688 283.922 67.9844 284.453 68.0156 285.047C68.0781 285.641 68.1562 286.25 68.25 286.875C68.375 287.469 68.5156 288.047 68.6719 288.609C68.8281 289.172 69.0312 289.672 69.2812 290.109L84.1875 270.328ZM121.688 309L102.562 258.797H117.141L128.109 290.109L139.031 258.797H153.656L134.531 309H121.688ZM177 296.719C177.5 296.875 178 296.984 178.5 297.047C179 297.078 179.5 297.094 180 297.094C181.25 297.094 182.453 296.922 183.609 296.578C184.766 296.234 185.844 295.75 186.844 295.125C187.875 294.469 188.781 293.688 189.562 292.781C190.375 291.844 191.031 290.812 191.531 289.688L200.906 299.109C199.719 300.797 198.344 302.312 196.781 303.656C195.25 305 193.578 306.141 191.766 307.078C189.984 308.016 188.094 308.719 186.094 309.188C184.125 309.688 182.094 309.938 180 309.938C176.469 309.938 173.141 309.281 170.016 307.969C166.922 306.656 164.203 304.828 161.859 302.484C159.547 300.141 157.719 297.359 156.375 294.141C155.031 290.891 154.359 287.328 154.359 283.453C154.359 279.484 155.031 275.859 156.375 272.578C157.719 269.297 159.547 266.5 161.859 264.188C164.203 261.875 166.922 260.078 170.016 258.797C173.141 257.516 176.469 256.875 180 256.875C182.094 256.875 184.141 257.125 186.141 257.625C188.141 258.125 190.031 258.844 191.812 259.781C193.625 260.719 195.312 261.875 196.875 263.25C198.438 264.594 199.812 266.109 201 267.797L177 296.719ZM183.562 270.328C182.969 270.109 182.375 269.969 181.781 269.906C181.219 269.844 180.625 269.812 180 269.812C178.25 269.812 176.594 270.141 175.031 270.797C173.5 271.422 172.156 272.328 171 273.516C169.875 274.703 168.984 276.141 168.328 277.828C167.672 279.484 167.344 281.359 167.344 283.453C167.344 283.922 167.359 284.453 167.391 285.047C167.453 285.641 167.531 286.25 167.625 286.875C167.75 287.469 167.891 288.047 168.047 288.609C168.203 289.172 168.406 289.672 168.656 290.109L183.562 270.328ZM220.359 309H207.469V238.828H220.359V309Z" fill="#FAF5E4"/>
<path d="M53.2969 190H6.23438V122.781H19.6875V176.547H53.2969V190ZM77.625 177.719C78.125 177.875 78.625 177.984 79.125 178.047C79.625 178.078 80.125 178.094 80.625 178.094C81.875 178.094 83.0781 177.922 84.2344 177.578C85.3906 177.234 86.4688 176.75 87.4688 176.125C88.5 175.469 89.4062 174.688 90.1875 173.781C91 172.844 91.6562 171.812 92.1562 170.688L101.531 180.109C100.344 181.797 98.9688 183.312 97.4062 184.656C95.875 186 94.2031 187.141 92.3906 188.078C90.6094 189.016 88.7188 189.719 86.7188 190.188C84.75 190.688 82.7188 190.938 80.625 190.938C77.0938 190.938 73.7656 190.281 70.6406 188.969C67.5469 187.656 64.8281 185.828 62.4844 183.484C60.1719 181.141 58.3438 178.359 57 175.141C55.6562 171.891 54.9844 168.328 54.9844 164.453C54.9844 160.484 55.6562 156.859 57 153.578C58.3438 150.297 60.1719 147.5 62.4844 145.188C64.8281 142.875 67.5469 141.078 70.6406 139.797C73.7656 138.516 77.0938 137.875 80.625 137.875C82.7188 137.875 84.7656 138.125 86.7656 138.625C88.7656 139.125 90.6562 139.844 92.4375 140.781C94.25 141.719 95.9375 142.875 97.5 144.25C99.0625 145.594 100.438 147.109 101.625 148.797L77.625 177.719ZM84.1875 151.328C83.5938 151.109 83 150.969 82.4062 150.906C81.8438 150.844 81.25 150.812 80.625 150.812C78.875 150.812 77.2188 151.141 75.6562 151.797C74.125 152.422 72.7812 153.328 71.625 154.516C70.5 155.703 69.6094 157.141 68.9531 158.828C68.2969 160.484 67.9688 162.359 67.9688 164.453C67.9688 164.922 67.9844 165.453 68.0156 166.047C68.0781 166.641 68.1562 167.25 68.25 167.875C68.375 168.469 68.5156 169.047 68.6719 169.609C68.8281 170.172 69.0312 170.672 69.2812 171.109L84.1875 151.328ZM156.328 190H153.234L148.266 183.109C147.047 184.203 145.75 185.234 144.375 186.203C143.031 187.141 141.609 187.969 140.109 188.688C138.609 189.375 137.062 189.922 135.469 190.328C133.906 190.734 132.312 190.938 130.688 190.938C127.156 190.938 123.828 190.344 120.703 189.156C117.609 187.969 114.891 186.25 112.547 184C110.234 181.719 108.406 178.938 107.062 175.656C105.719 172.375 105.047 168.641 105.047 164.453C105.047 160.547 105.719 156.969 107.062 153.719C108.406 150.438 110.234 147.625 112.547 145.281C114.891 142.938 117.609 141.125 120.703 139.844C123.828 138.531 127.156 137.875 130.688 137.875C132.312 137.875 133.922 138.078 135.516 138.484C137.109 138.891 138.656 139.453 140.156 140.172C141.656 140.891 143.078 141.734 144.422 142.703C145.797 143.672 147.078 144.719 148.266 145.844L153.234 139.891H156.328V190ZM143.438 164.453C143.438 162.703 143.094 161.016 142.406 159.391C141.75 157.734 140.844 156.281 139.688 155.031C138.531 153.75 137.172 152.734 135.609 151.984C134.078 151.203 132.438 150.812 130.688 150.812C128.938 150.812 127.281 151.109 125.719 151.703C124.188 152.297 122.844 153.172 121.688 154.328C120.562 155.484 119.672 156.922 119.016 158.641C118.359 160.328 118.031 162.266 118.031 164.453C118.031 166.641 118.359 168.594 119.016 170.312C119.672 172 120.562 173.422 121.688 174.578C122.844 175.734 124.188 176.609 125.719 177.203C127.281 177.797 128.938 178.094 130.688 178.094C132.438 178.094 134.078 177.719 135.609 176.969C137.172 176.188 138.531 175.172 139.688 173.922C140.844 172.641 141.75 171.188 142.406 169.562C143.094 167.906 143.438 166.203 143.438 164.453ZM178.922 190H166.125V139.797H169.219L173.438 145.75C175.5 143.875 177.844 142.438 180.469 141.438C183.094 140.406 185.812 139.891 188.625 139.891H199.922V152.641H188.625C187.281 152.641 186.016 152.891 184.828 153.391C183.641 153.891 182.609 154.578 181.734 155.453C180.859 156.328 180.172 157.359 179.672 158.547C179.172 159.734 178.922 161 178.922 162.344V190ZM218.672 190H205.875V139.797H208.969L213.188 144.672C215.25 142.797 217.578 141.359 220.172 140.359C222.797 139.328 225.531 138.812 228.375 138.812C231.438 138.812 234.328 139.406 237.047 140.594C239.766 141.75 242.141 143.359 244.172 145.422C246.203 147.453 247.797 149.844 248.953 152.594C250.141 155.312 250.734 158.219 250.734 161.312V190H237.938V161.312C237.938 160 237.688 158.766 237.188 157.609C236.688 156.422 236 155.391 235.125 154.516C234.25 153.641 233.234 152.953 232.078 152.453C230.922 151.953 229.688 151.703 228.375 151.703C227.031 151.703 225.766 151.953 224.578 152.453C223.391 152.953 222.359 153.641 221.484 154.516C220.609 155.391 219.922 156.422 219.422 157.609C218.922 158.766 218.672 160 218.672 161.312V190ZM274.969 126.156C274.969 127.344 274.734 128.453 274.266 129.484C273.828 130.516 273.219 131.422 272.438 132.203C271.656 132.953 270.734 133.562 269.672 134.031C268.641 134.469 267.531 134.688 266.344 134.688C265.156 134.688 264.031 134.469 262.969 134.031C261.938 133.562 261.031 132.953 260.25 132.203C259.5 131.422 258.891 130.516 258.422 129.484C257.984 128.453 257.766 127.344 257.766 126.156C257.766 125 257.984 123.906 258.422 122.875C258.891 121.812 259.5 120.906 260.25 120.156C261.031 119.375 261.938 118.766 262.969 118.328C264.031 117.859 265.156 117.625 266.344 117.625C267.531 117.625 268.641 117.859 269.672 118.328C270.734 118.766 271.656 119.375 272.438 120.156C273.219 120.906 273.828 121.812 274.266 122.875C274.734 123.906 274.969 125 274.969 126.156ZM272.766 190H259.875V139.797H272.766V190ZM295.359 190H282.562V139.797H285.656L289.875 144.672C291.938 142.797 294.266 141.359 296.859 140.359C299.484 139.328 302.219 138.812 305.062 138.812C308.125 138.812 311.016 139.406 313.734 140.594C316.453 141.75 318.828 143.359 320.859 145.422C322.891 147.453 324.484 149.844 325.641 152.594C326.828 155.312 327.422 158.219 327.422 161.312V190H314.625V161.312C314.625 160 314.375 158.766 313.875 157.609C313.375 156.422 312.688 155.391 311.812 154.516C310.938 153.641 309.922 152.953 308.766 152.453C307.609 151.953 306.375 151.703 305.062 151.703C303.719 151.703 302.453 151.953 301.266 152.453C300.078 152.953 299.047 153.641 298.172 154.516C297.297 155.391 296.609 156.422 296.109 157.609C295.609 158.766 295.359 160 295.359 161.312V190ZM372.281 164.453C372.281 162.703 371.938 161.016 371.25 159.391C370.594 157.734 369.688 156.281 368.531 155.031C367.375 153.75 366.016 152.734 364.453 151.984C362.922 151.203 361.281 150.812 359.531 150.812C357.781 150.812 356.125 151.109 354.562 151.703C353.031 152.297 351.688 153.172 350.531 154.328C349.406 155.484 348.516 156.922 347.859 158.641C347.203 160.328 346.875 162.266 346.875 164.453C346.875 166.547 347.203 168.438 347.859 170.125C348.516 171.781 349.406 173.203 350.531 174.391C351.688 175.578 353.031 176.5 354.562 177.156C356.125 177.781 357.781 178.094 359.531 178.094C361.281 178.094 362.922 177.719 364.453 176.969C366.016 176.188 367.375 175.172 368.531 173.922C369.688 172.641 370.594 171.188 371.25 169.562C371.938 167.906 372.281 166.203 372.281 164.453ZM385.172 183.672C385.172 187.203 384.5 190.516 383.156 193.609C381.812 196.703 379.969 199.406 377.625 201.719C375.312 204.031 372.594 205.859 369.469 207.203C366.375 208.547 363.062 209.219 359.531 209.219L353.109 209.125V196.328L359.438 196.422C361.438 196.422 363.141 196.156 364.547 195.625C365.953 195.125 367.141 194.422 368.109 193.516C369.078 192.641 369.844 191.625 370.406 190.469C371 189.312 371.469 188.094 371.812 186.812C371.312 187.625 370.594 188.297 369.656 188.828C368.719 189.328 367.672 189.734 366.516 190.047C365.391 190.391 364.203 190.625 362.953 190.75C361.734 190.875 360.594 190.938 359.531 190.938C356 190.938 352.672 190.328 349.547 189.109C346.453 187.891 343.734 186.156 341.391 183.906C339.078 181.625 337.25 178.844 335.906 175.562C334.562 172.281 333.891 168.578 333.891 164.453C333.891 160.672 334.562 157.156 335.906 153.906C337.25 150.656 339.078 147.844 341.391 145.469C343.734 143.094 346.453 141.234 349.547 139.891C352.672 138.547 356 137.875 359.531 137.875C361.156 137.875 362.766 138.078 364.359 138.484C365.953 138.891 367.5 139.453 369 140.172C370.5 140.891 371.922 141.734 373.266 142.703C374.641 143.672 375.922 144.719 377.109 145.844L382.078 139.891H385.172V183.672Z" fill="#FA7921"/>
</svg>
